<?xml version="1.0" encoding="UTF-8"?>
<!DOCTYPE svg PUBLIC "-//W3C//DTD SVG 1.1//EN" "http://www.w3.org/Graphics/SVG/1.1/DTD/svg11.dtd">
<svg xmlns="http://www.w3.org/2000/svg" version="1.1" width="512px" height="512px"
    style="shape-rendering:geometricPrecision; text-rendering:geometricPrecision; image-rendering:optimizeQuality; fill-rule:evenodd; clip-rule:evenodd"
    xmlns:xlink="http://www.w3.org/1999/xlink">
    <g>
        <path style="opacity:1" fill="rgba(122,129,141,0.51)"
            d="M 285.5,66.5 C 225.21,156.129 184.044,254.129 162,360.5C 159.507,373.123 157.341,385.789 155.5,398.5C 149.214,403.434 142.214,407.101 134.5,409.5C 127.552,408.72 123.885,404.887 123.5,398C 132.743,355.118 142.243,312.285 152,269.5C 152.667,267.833 152.667,266.167 152,264.5C 119.5,236 87,207.5 54.5,179C 46.5363,171.863 46.5363,164.863 54.5,158C 55.8333,157.667 57.1667,157.333 58.5,157C 103.269,153.127 147.936,148.627 192.5,143.5C 210.431,102.208 228.264,60.8745 246,19.5C 252.333,12.8333 258.667,12.8333 265,19.5C 271.848,35.1926 278.681,50.8593 285.5,66.5 Z" />
    </g>
    <g>
        <path style="opacity:0.99" fill="rgba(155,164,181,0.51)"
            d="M 285.5,66.5 C 296.299,92.2246 307.299,117.891 318.5,143.5C 363.064,148.627 407.731,153.127 452.5,157C 460.269,158.686 463.436,163.519 462,171.5C 460.939,174.562 459.106,177.062 456.5,179C 424,207.5 391.5,236 359,264.5C 367.524,307.604 376.857,350.604 387,393.5C 388.358,406.142 382.858,410.976 370.5,408C 332.167,385.167 293.833,362.333 255.5,339.5C 222.132,359.221 188.799,378.888 155.5,398.5C 157.341,385.789 159.507,373.123 162,360.5C 184.044,254.129 225.21,156.129 285.5,66.5 Z" />
    </g>
</svg>