<?xml version="1.0" standalone="no"?>
<svg xmlns="http://www.w3.org/2000/svg" viewBox="0 0 1440 320">
    <path fill="#cbf0ff" fill-opacity="0.2"
        d="M0,256L24,261.3C48,267,96,277,144,282.7C192,288,240,288,288,261.3C336,235,384,181,432,170.7C480,160,528,192,576,218.7C624,245,672,267,720,234.7C768,203,816,117,864,106.7C912,96,960,160,1008,202.7C1056,245,1104,267,1152,261.3C1200,256,1248,224,1296,176C1344,128,1392,64,1416,32L1440,0L1440,320L1416,320C1392,320,1344,320,1296,320C1248,320,1200,320,1152,320C1104,320,1056,320,1008,320C960,320,912,320,864,320C816,320,768,320,720,320C672,320,624,320,576,320C528,320,480,320,432,320C384,320,336,320,288,320C240,320,192,320,144,320C96,320,48,320,24,320L0,320Z">
    </path>
</svg>