<?xml version="1.0" standalone="no"?>
<svg xmlns="http://www.w3.org/2000/svg" viewBox="0 0 1440 320">
    <path fill="#ffd700" fill-opacity="0.3"
        d="M0,288L24,282.7C48,277,96,267,144,250.7C192,235,240,213,288,202.7C336,192,384,192,432,197.3C480,203,528,213,576,229.3C624,245,672,267,720,250.7C768,235,816,181,864,144C912,107,960,85,1008,90.7C1056,96,1104,128,1152,122.7C1200,117,1248,75,1296,90.7C1344,107,1392,181,1416,218.7L1440,256L1440,0L1416,0C1392,0,1344,0,1296,0C1248,0,1200,0,1152,0C1104,0,1056,0,1008,0C960,0,912,0,864,0C816,0,768,0,720,0C672,0,624,0,576,0C528,0,480,0,432,0C384,0,336,0,288,0C240,0,192,0,144,0C96,0,48,0,24,0L0,0Z">
    </path>
</svg>