<?xml version="1.0" standalone="no"?>
<svg xmlns="http://www.w3.org/2000/svg" viewBox="0 0 1440 320">
    <path fill="#ffd700" fill-opacity="0.3"
        d="M0,256L24,218.7C48,181,96,107,144,80C192,53,240,75,288,74.7C336,75,384,53,432,58.7C480,64,528,96,576,112C624,128,672,128,720,133.3C768,139,816,149,864,149.3C912,149,960,139,1008,133.3C1056,128,1104,128,1152,117.3C1200,107,1248,85,1296,90.7C1344,96,1392,128,1416,144L1440,160L1440,0L1416,0C1392,0,1344,0,1296,0C1248,0,1200,0,1152,0C1104,0,1056,0,1008,0C960,0,912,0,864,0C816,0,768,0,720,0C672,0,624,0,576,0C528,0,480,0,432,0C384,0,336,0,288,0C240,0,192,0,144,0C96,0,48,0,24,0L0,0Z">
    </path>
</svg>