<?xml version="1.0" standalone="no"?>
<svg xmlns="http://www.w3.org/2000/svg" viewBox="0 0 1440 320">
    <path fill="#ffd700" fill-opacity="0.2"
        d="M0,128L24,128C48,128,96,128,144,122.7C192,117,240,107,288,101.3C336,96,384,96,432,128C480,160,528,224,576,256C624,288,672,288,720,245.3C768,203,816,117,864,122.7C912,128,960,224,1008,224C1056,224,1104,128,1152,106.7C1200,85,1248,139,1296,165.3C1344,192,1392,192,1416,192L1440,192L1440,0L1416,0C1392,0,1344,0,1296,0C1248,0,1200,0,1152,0C1104,0,1056,0,1008,0C960,0,912,0,864,0C816,0,768,0,720,0C672,0,624,0,576,0C528,0,480,0,432,0C384,0,336,0,288,0C240,0,192,0,144,0C96,0,48,0,24,0L0,0Z">
    </path>
</svg>