<?xml version="1.0" standalone="no"?>
<svg viewBox="0 0 200 200" xmlns="http://www.w3.org/2000/svg">
  <path fill="rgba(167,240,186,0.223)"
    d="M42.9,-55.5C58,-48.1,74.2,-38.7,78.8,-25.4C83.5,-12,76.5,5.3,70,22C63.5,38.7,57.5,54.7,45.9,55.7C34.3,56.6,17.1,42.5,5.5,34.9C-6.1,27.4,-12.3,26.3,-23.5,25.3C-34.7,24.2,-51,23,-58.4,15.4C-65.7,7.8,-64.2,-6.3,-58.3,-17.3C-52.5,-28.4,-42.4,-36.4,-32,-45.4C-21.5,-54.3,-10.8,-64.2,1.6,-66.3C13.9,-68.5,27.8,-63,42.9,-55.5Z"
    transform="translate(100 100)" />
</svg>