<?xml version="1.0" standalone="no"?>
<svg xmlns="http://www.w3.org/2000/svg" viewBox="0 0 1440 320">
    <path fill="#cbf0ff" fill-opacity="0.3"
        d="M0,320L24,309.3C48,299,96,277,144,245.3C192,213,240,171,288,181.3C336,192,384,256,432,245.3C480,235,528,149,576,144C624,139,672,213,720,256C768,299,816,309,864,309.3C912,309,960,299,1008,261.3C1056,224,1104,160,1152,144C1200,128,1248,160,1296,149.3C1344,139,1392,85,1416,58.7L1440,32L1440,320L1416,320C1392,320,1344,320,1296,320C1248,320,1200,320,1152,320C1104,320,1056,320,1008,320C960,320,912,320,864,320C816,320,768,320,720,320C672,320,624,320,576,320C528,320,480,320,432,320C384,320,336,320,288,320C240,320,192,320,144,320C96,320,48,320,24,320L0,320Z">
    </path>
</svg>