<?xml version="1.0" standalone="no"?>
<svg xmlns="http://www.w3.org/2000/svg" viewBox="0 0 1440 320">
    <path fill="#cbf0ff" fill-opacity="0.2"
        d="M0,128L24,117.3C48,107,96,85,144,74.7C192,64,240,64,288,74.7C336,85,384,107,432,101.3C480,96,528,64,576,74.7C624,85,672,139,720,154.7C768,171,816,149,864,154.7C912,160,960,192,1008,186.7C1056,181,1104,139,1152,106.7C1200,75,1248,53,1296,58.7C1344,64,1392,96,1416,112L1440,128L1440,320L1416,320C1392,320,1344,320,1296,320C1248,320,1200,320,1152,320C1104,320,1056,320,1008,320C960,320,912,320,864,320C816,320,768,320,720,320C672,320,624,320,576,320C528,320,480,320,432,320C384,320,336,320,288,320C240,320,192,320,144,320C96,320,48,320,24,320L0,320Z">
    </path>
</svg>