<?xml version="1.0" encoding="UTF-8"?>
<!DOCTYPE svg PUBLIC "-//W3C//DTD SVG 1.1//EN" "http://www.w3.org/Graphics/SVG/1.1/DTD/svg11.dtd">
<svg xmlns="http://www.w3.org/2000/svg" version="1.1" width="512px" height="512px" style="shape-rendering:geometricPrecision; text-rendering:geometricPrecision; image-rendering:optimizeQuality; fill-rule:evenodd; clip-rule:evenodd" xmlns:xlink="http://www.w3.org/1999/xlink">
<g><path style="opacity:0.997" fill="#5ad7d0" d="M 245.5,-0.5 C 256.5,-0.5 267.5,-0.5 278.5,-0.5C 291.225,0.955955 303.892,3.28929 316.5,6.5C 283.833,39.5 251.167,72.5 218.5,105.5C 192.5,105.5 166.5,105.5 140.5,105.5C 175.5,70.1667 210.5,34.8333 245.5,-0.5 Z"/></g>
<g><path style="opacity:0.995" fill="#60dcd6" d="M 232.5,-0.5 C 236.833,-0.5 241.167,-0.5 245.5,-0.5C 210.5,34.8333 175.5,70.1667 140.5,105.5C 119.833,108.167 108.167,119.833 105.5,140.5C 70.1667,175.5 34.8333,210.5 -0.5,245.5C -0.5,241.167 -0.5,236.833 -0.5,232.5C 10.3875,142.857 54.7208,75.3573 132.5,30C 163.971,13.3053 197.304,3.1386 232.5,-0.5 Z"/></g>
<g><path style="opacity:0.998" fill="#54d2ca" d="M 316.5,6.5 C 334.974,10.6575 352.641,16.9909 369.5,25.5C 369.631,26.2389 369.464,26.9056 369,27.5C 342.965,53.368 317.132,79.368 291.5,105.5C 267.167,105.5 242.833,105.5 218.5,105.5C 251.167,72.5 283.833,39.5 316.5,6.5 Z"/></g>
<g><path style="opacity:0.997" fill="#4ecdc4" d="M 369.5,25.5 C 386.545,33.9026 402.211,44.2359 416.5,56.5C 399.833,72.5 383.5,88.8333 367.5,105.5C 357.833,105.5 348.167,105.5 338.5,105.5C 338.5,108.5 338.5,111.5 338.5,114.5C 335.167,111.5 331.833,108.5 328.5,105.5C 316.167,105.5 303.833,105.5 291.5,105.5C 317.132,79.368 342.965,53.368 369,27.5C 369.464,26.9056 369.631,26.2389 369.5,25.5 Z"/></g>
<g><path style="opacity:0.994" fill="#47c6bd" d="M 416.5,56.5 C 434.558,70.5573 450.224,86.8906 463.5,105.5C 450.782,119.22 437.448,132.22 423.5,144.5C 415.453,136.784 407.453,129.118 399.5,121.5C 391.61,110.888 380.944,105.555 367.5,105.5C 383.5,88.8333 399.833,72.5 416.5,56.5 Z"/></g>
<g><path style="opacity:1" fill="#fefefe" d="M 140.5,105.5 C 166.5,105.5 192.5,105.5 218.5,105.5C 242.833,105.5 267.167,105.5 291.5,105.5C 303.833,105.5 316.167,105.5 328.5,105.5C 328.5,157.167 328.5,208.833 328.5,260.5C 328.5,283.833 328.5,307.167 328.5,330.5C 328.5,355.5 328.5,380.5 328.5,405.5C 303.5,405.5 278.5,405.5 253.5,405.5C 213.832,405.667 174.165,405.5 134.5,405C 131.106,403.925 127.772,402.758 124.5,401.5C 111.969,393.784 105.636,382.45 105.5,367.5C 105.5,342.167 105.5,316.833 105.5,291.5C 105.5,267.167 105.5,242.833 105.5,218.5C 105.5,192.5 105.5,166.5 105.5,140.5C 108.167,119.833 119.833,108.167 140.5,105.5 Z"/></g>
<g><path style="opacity:1" fill="#fefefe" d="M 367.5,105.5 C 380.944,105.555 391.61,110.888 399.5,121.5C 401.876,125.587 403.709,129.92 405,134.5C 405.5,142.827 405.666,151.16 405.5,159.5C 383.167,159.5 360.833,159.5 338.5,159.5C 338.5,144.5 338.5,129.5 338.5,114.5C 338.5,111.5 338.5,108.5 338.5,105.5C 348.167,105.5 357.833,105.5 367.5,105.5 Z"/></g>
<g><path style="opacity:0.998" fill="#5ad7d0" d="M 105.5,140.5 C 105.5,166.5 105.5,192.5 105.5,218.5C 72.5,251.167 39.5,283.833 6.5,316.5C 3.28929,303.892 0.955955,291.225 -0.5,278.5C -0.5,267.5 -0.5,256.5 -0.5,245.5C 34.8333,210.5 70.1667,175.5 105.5,140.5 Z"/></g>
<g><path style="opacity:0.993" fill="#3fbfb4" d="M 463.5,105.5 C 490.862,142.933 506.528,184.933 510.5,231.5C 503.5,224.833 496.5,218.167 489.5,211.5C 471.5,192.833 453.167,174.5 434.5,156.5C 430.833,152.5 427.167,148.5 423.5,144.5C 437.448,132.22 450.782,119.22 463.5,105.5 Z"/></g>
<g><path style="opacity:1" fill="#fefffe" d="M 405.5,183.5 C 405.5,195.833 405.5,208.167 405.5,220.5C 383.167,220.5 360.833,220.5 338.5,220.5C 338.5,203.833 338.5,187.167 338.5,170.5C 360.833,170.5 383.167,170.5 405.5,170.5C 405.5,174.833 405.5,179.167 405.5,183.5 Z"/></g>
<g><path style="opacity:1" fill="#2da294" d="M 216.5,174.5 C 241.299,172.304 257.466,182.971 265,206.5C 266.218,239.948 250.052,256.115 216.5,255C 192.506,247.194 182.006,230.694 185,205.5C 190.094,189.571 200.594,179.238 216.5,174.5 Z"/></g>
<g><path style="opacity:1" fill="#34aea1" d="M 434.5,156.5 C 453.167,174.5 471.5,192.833 489.5,211.5C 462.217,240.45 434.217,268.784 405.5,296.5C 405.5,294.5 405.5,292.5 405.5,290.5C 383.167,290.5 360.833,290.5 338.5,290.5C 338.5,300.833 338.5,311.167 338.5,321.5C 335.167,324.5 331.833,327.5 328.5,330.5C 328.5,307.167 328.5,283.833 328.5,260.5C 331.833,257.5 335.167,254.5 338.5,251.5C 338.5,260.833 338.5,270.167 338.5,279.5C 360.833,279.5 383.167,279.5 405.5,279.5C 405.5,263.5 405.5,247.5 405.5,231.5C 390.339,230.669 375.005,230.169 359.5,230C 362.167,227.333 364.833,224.667 367.5,222C 380.34,221.831 393.007,221.331 405.5,220.5C 405.5,208.167 405.5,195.833 405.5,183.5C 414.886,174.111 424.553,165.111 434.5,156.5 Z"/></g>
<g><path style="opacity:0.998" fill="#54d2ca" d="M 105.5,218.5 C 105.5,242.833 105.5,267.167 105.5,291.5C 78.8063,317.527 52.473,343.86 26.5,370.5C 17.2892,353.544 10.6225,335.544 6.5,316.5C 39.5,283.833 72.5,251.167 105.5,218.5 Z"/></g>
<g><path style="opacity:1" fill="#3bac9f" d="M 328.5,105.5 C 331.833,108.5 335.167,111.5 338.5,114.5C 338.5,129.5 338.5,144.5 338.5,159.5C 360.833,159.5 383.167,159.5 405.5,159.5C 405.666,151.16 405.5,142.827 405,134.5C 403.709,129.92 401.876,125.587 399.5,121.5C 407.453,129.118 415.453,136.784 423.5,144.5C 427.167,148.5 430.833,152.5 434.5,156.5C 424.553,165.111 414.886,174.111 405.5,183.5C 405.5,179.167 405.5,174.833 405.5,170.5C 383.167,170.5 360.833,170.5 338.5,170.5C 338.5,187.167 338.5,203.833 338.5,220.5C 360.833,220.5 383.167,220.5 405.5,220.5C 393.007,221.331 380.34,221.831 367.5,222C 364.833,224.667 362.167,227.333 359.5,230C 375.005,230.169 390.339,230.669 405.5,231.5C 383.167,231.5 360.833,231.5 338.5,231.5C 338.5,238.167 338.5,244.833 338.5,251.5C 335.167,254.5 331.833,257.5 328.5,260.5C 328.5,208.833 328.5,157.167 328.5,105.5 Z"/></g>
<g><path style="opacity:1" fill="#fefffe" d="M 405.5,231.5 C 405.5,247.5 405.5,263.5 405.5,279.5C 383.167,279.5 360.833,279.5 338.5,279.5C 338.5,270.167 338.5,260.833 338.5,251.5C 338.5,244.833 338.5,238.167 338.5,231.5C 360.833,231.5 383.167,231.5 405.5,231.5 Z"/></g>
<g><path style="opacity:1" fill="#2fa597" d="M 273.5,250.5 C 273.631,251.239 273.464,251.906 273,252.5C 244.965,280.368 217.132,308.368 189.5,336.5C 178.249,338.212 167.916,336.045 158.5,330C 154.001,325.834 151.501,320.667 151,314.5C 148.251,294.646 152.251,276.313 163,259.5C 169.755,251.704 178.255,248.204 188.5,249C 212.807,268.234 237.141,268.234 261.5,249C 265.666,248.334 269.666,248.834 273.5,250.5 Z"/></g>
<g><path style="opacity:1" fill="#32aa9d" d="M 273.5,250.5 C 283.713,254.528 290.547,261.861 294,272.5C 298.868,286.443 300.534,300.776 299,315.5C 296.948,326.552 290.448,333.386 279.5,336C 249.502,336.5 219.502,336.667 189.5,336.5C 217.132,308.368 244.965,280.368 273,252.5C 273.464,251.906 273.631,251.239 273.5,250.5 Z"/></g>
<g><path style="opacity:1" fill="#fefffe" d="M 405.5,296.5 C 405.5,311.167 405.5,325.833 405.5,340.5C 383.167,340.5 360.833,340.5 338.5,340.5C 338.5,334.167 338.5,327.833 338.5,321.5C 338.5,311.167 338.5,300.833 338.5,290.5C 360.833,290.5 383.167,290.5 405.5,290.5C 405.5,292.5 405.5,294.5 405.5,296.5 Z"/></g>
<g><path style="opacity:0.997" fill="#4fcdc4" d="M 105.5,291.5 C 105.5,316.833 105.5,342.167 105.5,367.5C 88.8333,383.5 72.5,399.833 56.5,416.5C 49.2908,408.438 42.7908,399.772 37,390.5C 33.2196,383.937 29.7196,377.271 26.5,370.5C 52.473,343.86 78.8063,317.527 105.5,291.5 Z"/></g>
<g><path style="opacity:1" fill="#fefefe" d="M 405.5,351.5 C 406.324,362.747 405.158,373.747 402,384.5C 392.692,400.903 378.525,407.903 359.5,405.5C 352.5,405.5 345.5,405.5 338.5,405.5C 338.5,387.5 338.5,369.5 338.5,351.5C 360.833,351.5 383.167,351.5 405.5,351.5 Z"/></g>
<g><path style="opacity:0.995" fill="#47c7bd" d="M 105.5,367.5 C 105.636,382.45 111.969,393.784 124.5,401.5C 124.062,401.435 123.728,401.601 123.5,402C 131.036,409.368 138.369,416.868 145.5,424.5C 132.368,437.131 119.368,449.965 106.5,463C 107.056,463.383 107.389,463.883 107.5,464.5C 87.9539,451.29 70.9539,435.29 56.5,416.5C 72.5,399.833 88.8333,383.5 105.5,367.5 Z"/></g>
<g><path style="opacity:0.999" fill="#30b0a2" d="M 511.5,244.5 C 511.5,255.833 511.5,267.167 511.5,278.5C 500.612,368.144 456.279,435.644 378.5,481C 347.029,497.695 313.696,507.861 278.5,511.5C 270.5,511.5 262.5,511.5 254.5,511.5C 289.5,476.167 324.5,440.833 359.5,405.5C 378.525,407.903 392.692,400.903 402,384.5C 405.158,373.747 406.324,362.747 405.5,351.5C 405.082,350.778 404.416,350.278 403.5,350C 439,314.5 474.5,279 510,243.5C 510.383,244.056 510.883,244.389 511.5,244.5 Z"/></g>
<g><path style="opacity:1" fill="#32ac9f" d="M 124.5,401.5 C 127.772,402.758 131.106,403.925 134.5,405C 174.165,405.5 213.832,405.667 253.5,405.5C 232.833,426.833 211.833,447.833 190.5,468.5C 175.527,453.861 160.527,439.194 145.5,424.5C 138.369,416.868 131.036,409.368 123.5,402C 123.728,401.601 124.062,401.435 124.5,401.5 Z"/></g>
<g><path style="opacity:1" fill="#33afa2" d="M 489.5,211.5 C 496.5,218.167 503.5,224.833 510.5,231.5C 510.5,232.167 510.833,232.5 511.5,232.5C 511.5,236.5 511.5,240.5 511.5,244.5C 510.883,244.389 510.383,244.056 510,243.5C 474.5,279 439,314.5 403.5,350C 404.416,350.278 405.082,350.778 405.5,351.5C 383.167,351.5 360.833,351.5 338.5,351.5C 338.5,369.5 338.5,387.5 338.5,405.5C 345.5,405.5 352.5,405.5 359.5,405.5C 324.5,440.833 289.5,476.167 254.5,511.5C 247.167,511.5 239.833,511.5 232.5,511.5C 232.5,510.833 232.167,510.5 231.5,510.5C 217.861,496.527 204.194,482.527 190.5,468.5C 211.833,447.833 232.833,426.833 253.5,405.5C 278.5,405.5 303.5,405.5 328.5,405.5C 328.5,380.5 328.5,355.5 328.5,330.5C 331.833,327.5 335.167,324.5 338.5,321.5C 338.5,327.833 338.5,334.167 338.5,340.5C 360.833,340.5 383.167,340.5 405.5,340.5C 405.5,325.833 405.5,311.167 405.5,296.5C 434.217,268.784 462.217,240.45 489.5,211.5 Z"/></g>
<g><path style="opacity:0.993" fill="#3fbfb4" d="M 145.5,424.5 C 160.527,439.194 175.527,453.861 190.5,468.5C 204.194,482.527 217.861,496.527 231.5,510.5C 185.645,506.777 144.312,491.444 107.5,464.5C 107.389,463.883 107.056,463.383 106.5,463C 119.368,449.965 132.368,437.131 145.5,424.5 Z"/></g>
</svg>
