<?xml version="1.0" encoding="UTF-8"?>
<!DOCTYPE svg PUBLIC "-//W3C//DTD SVG 1.1//EN" "http://www.w3.org/Graphics/SVG/1.1/DTD/svg11.dtd">
<svg xmlns="http://www.w3.org/2000/svg" version="1.1" width="512px" height="512px"
    style="shape-rendering:geometricPrecision; text-rendering:geometricPrecision; image-rendering:optimizeQuality; fill-rule:evenodd; clip-rule:evenodd"
    xmlns:xlink="http://www.w3.org/1999/xlink">
    <g>
        <path style="opacity:0.978" fill="#424ede"
            d="M 357.5,-0.5 C 367.833,-0.5 378.167,-0.5 388.5,-0.5C 420.366,3.76719 447.699,17.1005 470.5,39.5C 456.78,52.2184 443.78,65.5517 431.5,79.5C 401.606,53.0761 368.606,48.5761 332.5,66C 328.167,69 323.833,72 319.5,75C 290.472,104.361 261.139,133.361 231.5,162C 216.84,169.028 204.007,166.528 193,154.5C 187,143.5 187,132.5 193,121.5C 222.5,92 252,62.5 281.5,33C 303.579,14.4609 328.912,3.29424 357.5,-0.5 Z" />
    </g>
    <g>
        <path style="opacity:1" fill="#6d75e4"
            d="M 470.5,39.5 C 472.5,40.8333 474.167,42.5 475.5,44.5C 476.08,46.7488 477.413,48.4154 479.5,49.5C 482.552,52.5762 485.386,55.9095 488,59.5C 489.705,61.5766 490.872,63.91 491.5,66.5C 491.427,68.0269 492.094,69.0269 493.5,69.5C 494.338,69.8417 494.672,70.5084 494.5,71.5C 494.427,73.0269 495.094,74.0269 496.5,74.5C 504.14,89.4178 509.14,105.085 511.5,121.5C 511.5,132.5 511.5,143.5 511.5,154.5C 508.416,175.579 501.249,195.246 490,213.5C 486.68,218.647 482.847,223.314 478.5,227.5C 477.094,227.973 476.427,228.973 476.5,230.5C 447.702,259.799 418.702,288.965 389.5,318C 379.113,323.743 368.779,323.909 358.5,318.5C 357.738,316.738 356.404,315.738 354.5,315.5C 348.255,310.006 344.922,303.006 344.5,294.5C 345.12,290.78 345.953,287.114 347,283.5C 347.792,280.894 349.292,278.894 351.5,277.5C 372.551,257.45 392.884,236.783 412.5,215.5C 413.239,215.631 413.906,215.464 414.5,215C 421.428,208.577 427.762,201.744 433.5,194.5C 435.273,191.94 437.273,189.607 439.5,187.5C 440.906,187.027 441.573,186.027 441.5,184.5C 441.932,183.29 442.599,182.29 443.5,181.5C 444.906,181.027 445.573,180.027 445.5,178.5C 462.472,142.304 457.805,109.304 431.5,79.5C 443.78,65.5517 456.78,52.2184 470.5,39.5 Z" />
    </g>
    <g>
        <path style="opacity:0.953" fill="#5e68e2"
            d="M 475.5,44.5 C 477.587,45.5846 478.92,47.2512 479.5,49.5C 477.413,48.4154 476.08,46.7488 475.5,44.5 Z" />
    </g>
    <g>
        <path style="opacity:0.737" fill="#5f68e2"
            d="M 491.5,66.5 C 492.906,66.9731 493.573,67.9731 493.5,69.5C 492.094,69.0269 491.427,68.0269 491.5,66.5 Z" />
    </g>
    <g>
        <path style="opacity:0.545" fill="#5d67e2"
            d="M 494.5,71.5 C 495.906,71.9731 496.573,72.9731 496.5,74.5C 495.094,74.0269 494.427,73.0269 494.5,71.5 Z" />
    </g>
    <g>
        <path style="opacity:0.967" fill="#424dde"
            d="M 333.5,148.5 C 356.321,152.169 365.154,165.169 360,187.5C 358.503,191.165 356.503,194.498 354,197.5C 301.833,249.667 249.667,301.833 197.5,354C 182.111,365.57 167.611,364.403 154,350.5C 146.687,337.639 147.687,325.306 157,313.5C 209.167,261.333 261.333,209.167 313.5,157C 319.447,152.185 326.114,149.352 333.5,148.5 Z" />
    </g>
    <g>
        <path style="opacity:0.722" fill="#5f68e2"
            d="M 445.5,178.5 C 445.573,180.027 444.906,181.027 443.5,181.5C 443.427,179.973 444.094,178.973 445.5,178.5 Z" />
    </g>
    <g>
        <path style="opacity:0.745" fill="#5e67e2"
            d="M 441.5,184.5 C 441.573,186.027 440.906,187.027 439.5,187.5C 439.427,185.973 440.094,184.973 441.5,184.5 Z" />
    </g>
    <g>
        <path style="opacity:0.978" fill="#424ede"
            d="M 79.5,431.5 C 65.5517,443.78 52.2184,456.78 39.5,470.5C 23.3349,454.463 11.8349,435.463 5,413.5C 2.82468,405.437 0.991345,397.437 -0.5,389.5C -0.5,378.5 -0.5,367.5 -0.5,356.5C 3.58613,328.328 14.7528,303.328 33,281.5C 62.5,252 92,222.5 121.5,193C 136.378,185.292 149.545,187.459 161,199.5C 167.637,210.015 167.971,220.682 162,231.5C 133.361,261.139 104.361,290.472 75,319.5C 52.5552,348.909 49.5552,380.242 66,413.5C 69.9473,419.943 74.4473,425.943 79.5,431.5 Z" />
    </g>
    <g>
        <path style="opacity:0.984" fill="#636ce3"
            d="M 433.5,194.5 C 427.762,201.744 421.428,208.577 414.5,215C 413.906,215.464 413.239,215.631 412.5,215.5C 419.167,208.167 426.167,201.167 433.5,194.5 Z" />
    </g>
    <g>
        <path style="opacity:0.024" fill="#5c65e2"
            d="M 478.5,227.5 C 478.573,229.027 477.906,230.027 476.5,230.5C 476.427,228.973 477.094,227.973 478.5,227.5 Z" />
    </g>
    <g>
        <path style="opacity:0.98" fill="#636ce3"
            d="M 412.5,215.5 C 392.884,236.783 372.551,257.45 351.5,277.5C 371.116,256.217 391.449,235.55 412.5,215.5 Z" />
    </g>
    <g>
        <path style="opacity:0.965" fill="#5f68e2"
            d="M 354.5,315.5 C 356.404,315.738 357.738,316.738 358.5,318.5C 356.596,318.262 355.262,317.262 354.5,315.5 Z" />
    </g>
    <g>
        <path style="opacity:1" fill="#6d75e4"
            d="M 315.5,354.5 C 315.738,356.404 316.738,357.738 318.5,358.5C 323.909,368.779 323.743,379.113 318,389.5C 288.5,419 259,448.5 229.5,478C 207.421,496.539 182.088,507.706 153.5,511.5C 143.167,511.5 132.833,511.5 122.5,511.5C 105.72,509.3 89.7198,504.3 74.5,496.5C 74.0269,495.094 73.0269,494.427 71.5,494.5C 70.5084,494.672 69.8417,494.338 69.5,493.5C 69.0269,492.094 68.0269,491.427 66.5,491.5C 65.5084,491.672 64.8417,491.338 64.5,490.5C 64.0269,489.094 63.0269,488.427 61.5,488.5C 56.591,485.926 52.2577,482.592 48.5,478.5C 47.0892,476.086 45.0892,474.419 42.5,473.5C 41.1667,472.833 40.1667,471.833 39.5,470.5C 52.2184,456.78 65.5517,443.78 79.5,431.5C 111.606,459.343 146.273,462.843 183.5,442C 188.381,438.397 193.048,434.564 197.5,430.5C 224.783,404.884 251.45,378.55 277.5,351.5C 278.894,349.292 280.894,347.792 283.5,347C 293.248,343.622 302.582,344.622 311.5,350C 313.041,351.371 314.375,352.871 315.5,354.5 Z" />
    </g>
    <g>
        <path style="opacity:0.965" fill="#5f68e2"
            d="M 315.5,354.5 C 317.262,355.262 318.262,356.596 318.5,358.5C 316.738,357.738 315.738,356.404 315.5,354.5 Z" />
    </g>
    <g>
        <path style="opacity:0.98" fill="#636ce3"
            d="M 277.5,351.5 C 251.45,378.55 224.783,404.884 197.5,430.5C 223.55,403.45 250.217,377.116 277.5,351.5 Z" />
    </g>
    <g>
        <path style="opacity:0.988" fill="#6069e2"
            d="M 42.5,473.5 C 45.0892,474.419 47.0892,476.086 48.5,478.5C 45.9108,477.581 43.9108,475.914 42.5,473.5 Z" />
    </g>
    <g>
        <path style="opacity:0.714" fill="#5f68e2"
            d="M 61.5,488.5 C 63.0269,488.427 64.0269,489.094 64.5,490.5C 62.9731,490.573 61.9731,489.906 61.5,488.5 Z" />
    </g>
    <g>
        <path style="opacity:0.671" fill="#5e67e2"
            d="M 66.5,491.5 C 68.0269,491.427 69.0269,492.094 69.5,493.5C 67.9731,493.573 66.9731,492.906 66.5,491.5 Z" />
    </g>
    <g>
        <path style="opacity:0.545" fill="#5d66e2"
            d="M 71.5,494.5 C 73.0269,494.427 74.0269,495.094 74.5,496.5C 72.9731,496.573 71.9731,495.906 71.5,494.5 Z" />
    </g>
</svg>