<?xml version="1.0" encoding="UTF-8"?>
<!DOCTYPE svg PUBLIC "-//W3C//DTD SVG 1.1//EN" "http://www.w3.org/Graphics/SVG/1.1/DTD/svg11.dtd">
<svg xmlns="http://www.w3.org/2000/svg" version="1.1" width="512px" height="512px"
    style="shape-rendering:geometricPrecision; text-rendering:geometricPrecision; image-rendering:optimizeQuality; fill-rule:evenodd; clip-rule:evenodd"
    xmlns:xlink="http://www.w3.org/1999/xlink">
    <g>
        <path style="opacity:0.99" fill="hsla(211, 100%, 28%, 1)"
            d="M -0.5,302.5 C -0.5,233.167 -0.5,163.833 -0.5,94.5C 9.33342,72.8573 26.0001,59.3573 49.5,54C 106.147,52.8541 162.814,52.3541 219.5,52.5C 275.855,52.3521 332.188,52.8521 388.5,54C 410.035,59.5026 424.535,72.6693 432,93.5C 432.667,163.5 432.667,233.5 432,303.5C 426.362,319.136 415.529,329.303 399.5,334C 392.953,335.777 386.286,336.777 379.5,337C 301.167,337.333 222.833,337.667 144.5,338C 108.335,358.915 72.3355,380.081 36.5,401.5C 36.1667,401 35.8333,400.5 35.5,400C 41.1732,378.972 46.8398,357.972 52.5,337C 34.262,334.963 18.762,327.463 6,314.5C 3.01273,310.853 0.846059,306.853 -0.5,302.5 Z M 103.5,159.5 C 126.137,159.636 136.97,170.969 136,193.5C 130.644,210.432 119.144,217.599 101.5,215C 82.0726,206.972 76.2393,193.139 84,173.5C 88.7216,166.234 95.2216,161.567 103.5,159.5 Z M 210.5,159.5 C 230.003,159.01 241.337,168.343 244.5,187.5C 242.538,204.629 233.038,214.295 216,216.5C 195.027,212.884 186.027,200.55 189,179.5C 193.144,169.521 200.311,162.854 210.5,159.5 Z M 318.5,159.5 C 341.654,159.818 352.487,171.485 351,194.5C 345.183,210.666 333.683,217.499 316.5,215C 300.618,209.406 293.784,198.239 296,181.5C 299.447,169.885 306.947,162.552 318.5,159.5 Z" />
    </g>
    <g>
        <path style="opacity:0.982" fill="#142850"
            d="M 511.5,187.5 C 511.5,251.167 511.5,314.833 511.5,378.5C 509.053,390.553 502.72,400.053 492.5,407C 486.478,409.869 480.145,411.035 473.5,410.5C 477.009,426.201 480.675,441.868 484.5,457.5C 457.272,442.548 430.272,427.048 403.5,411C 329.456,410.988 255.456,410.321 181.5,409C 156.65,401.673 144.316,385.173 144.5,359.5C 239.167,359.667 333.834,359.5 428.5,359C 446.299,354.2 456.799,342.7 460,324.5C 461.457,269.855 461.957,215.188 461.5,160.5C 469.507,160.334 477.507,160.5 485.5,161C 499.798,164.463 508.465,173.296 511.5,187.5 Z" />
    </g>
</svg>