<?xml version="1.0" encoding="UTF-8"?>
<!DOCTYPE svg PUBLIC "-//W3C//DTD SVG 1.1//EN" "http://www.w3.org/Graphics/SVG/1.1/DTD/svg11.dtd">
<svg xmlns="http://www.w3.org/2000/svg" version="1.1" width="256px" height="256px" style="shape-rendering:geometricPrecision; text-rendering:geometricPrecision; image-rendering:optimizeQuality; fill-rule:evenodd; clip-rule:evenodd" xmlns:xlink="http://www.w3.org/1999/xlink">
<g><path style="opacity:0.988" fill="#7dd7f6" d="M 2.5,-0.5 C 19.5,-0.5 36.5,-0.5 53.5,-0.5C 58.7279,4.34382 58.7279,9.17715 53.5,14C 40.5043,14.4999 27.5043,14.6666 14.5,14.5C 14.6666,27.5043 14.4999,40.5043 14,53.5C 9.17715,58.7279 4.34382,58.7279 -0.5,53.5C -0.5,36.5 -0.5,19.5 -0.5,2.5C 0.833333,1.83333 1.83333,0.833333 2.5,-0.5 Z"/></g>
<g><path style="opacity:0.992" fill="#69a8ff" d="M 201.5,-0.5 C 218.5,-0.5 235.5,-0.5 252.5,-0.5C 253.167,0.833333 254.167,1.83333 255.5,2.5C 255.5,19.5 255.5,36.5 255.5,53.5C 250.656,58.7279 245.823,58.7279 241,53.5C 240.5,40.5043 240.333,27.5043 240.5,14.5C 227.496,14.6666 214.496,14.4999 201.5,14C 196.272,9.17715 196.272,4.34382 201.5,-0.5 Z"/></g>
<g><path style="opacity:0.984" fill="#324872" d="M 127.5,43.5 C 127.5,106.167 127.5,168.833 127.5,231.5C 115.414,232.133 103.581,231.466 92,229.5C 91.3333,220.167 91.3333,210.833 92,201.5C 92.7504,200.874 93.5838,200.374 94.5,200C 99.5,199.667 104.5,199.333 109.5,199C 110,198.5 110.5,198 111,197.5C 111.667,157.5 111.667,117.5 111,77.5C 110.5,77 110,76.5 109.5,76C 99.5,75.3333 89.5,75.3333 79.5,76C 79,76.5 78.5,77 78,77.5C 77.6667,84.1667 77.3333,90.8333 77,97.5C 76.5,98 76,98.5 75.5,99C 65.8333,99.6667 56.1667,99.6667 46.5,99C 45.8398,89.9083 45.5064,80.7417 45.5,71.5C 45.5064,62.2583 45.8398,53.0917 46.5,44C 73.4979,43.5 100.498,43.3334 127.5,43.5 Z"/></g>
<g><path style="opacity:1" fill="#1f3259" d="M 127.5,43.5 C 154.502,43.3334 181.502,43.5 208.5,44C 209.16,53.0917 209.494,62.2583 209.5,71.5C 209.494,80.7417 209.16,89.9083 208.5,99C 198.833,99.6667 189.167,99.6667 179.5,99C 179,98.5 178.5,98 178,97.5C 177.667,90.8333 177.333,84.1667 177,77.5C 176.5,77 176,76.5 175.5,76C 165.5,75.3333 155.5,75.3333 145.5,76C 145,76.5 144.5,77 144,77.5C 143.333,117.5 143.333,157.5 144,197.5C 144.5,198 145,198.5 145.5,199C 150.5,199.333 155.5,199.667 160.5,200C 161.416,200.374 162.25,200.874 163,201.5C 163.667,210.833 163.667,220.167 163,229.5C 151.419,231.466 139.586,232.133 127.5,231.5C 127.5,168.833 127.5,106.167 127.5,43.5 Z"/></g>
<g><path style="opacity:0.988" fill="#7dd7f6" d="M 53.5,255.5 C 36.5,255.5 19.5,255.5 2.5,255.5C 1.83333,254.167 0.833333,253.167 -0.5,252.5C -0.5,235.5 -0.5,218.5 -0.5,201.5C 4.34382,196.272 9.17715,196.272 14,201.5C 14.4999,214.496 14.6666,227.496 14.5,240.5C 27.5043,240.333 40.5043,240.5 53.5,241C 58.7279,245.823 58.7279,250.656 53.5,255.5 Z"/></g>
<g><path style="opacity:0.992" fill="#69a8ff" d="M 255.5,201.5 C 255.5,218.5 255.5,235.5 255.5,252.5C 254.167,253.167 253.167,254.167 252.5,255.5C 235.5,255.5 218.5,255.5 201.5,255.5C 196.272,250.656 196.272,245.823 201.5,241C 214.496,240.5 227.496,240.333 240.5,240.5C 240.333,227.496 240.5,214.496 241,201.5C 245.823,196.272 250.656,196.272 255.5,201.5 Z"/></g>
</svg>
