<svg width="42" height="42" viewBox="0 0 42 42" fill="none" xmlns="http://www.w3.org/2000/svg">
<circle opacity="0.5" cx="21" cy="21" r="21" fill="#E6EAF5"/>
<path d="M24.5001 20.1668H26.2501V23.4568L29.0967 25.1018L28.2217 26.6185L24.5001 24.4718V20.1668ZM28.1517 15.8852C27.1017 12.9452 24.3017 10.8335 21.0001 10.8335C17.8501 10.8335 15.1667 12.7585 14.0001 15.5002C10.7801 15.5002 8.16675 18.1135 8.16675 21.3335C8.16675 24.5535 10.7801 27.1668 14.0001 27.1668H18.2934C19.6117 29.9202 22.4117 31.8335 25.6667 31.8335C30.1817 31.8335 33.8334 28.1818 33.8334 23.6668C33.8334 20.0268 31.4534 16.9468 28.1517 15.8852ZM14.0001 24.8335C12.0634 24.8335 10.5001 23.2702 10.5001 21.3335C10.5001 19.3968 12.0634 17.8335 14.0001 17.8335C14.4317 17.8335 14.8517 17.9152 15.2367 18.0552C15.4619 16.6894 16.1651 15.448 17.2207 14.5526C18.2764 13.6572 19.6158 13.1661 21.0001 13.1668C22.9017 13.1668 24.5817 14.0885 25.6667 15.5002C21.1401 15.5002 17.5001 19.1635 17.5001 23.6668C17.5001 24.0635 17.5351 24.4485 17.5934 24.8335H14.0001ZM25.6667 29.5002C22.4467 29.5002 19.8334 26.8868 19.8334 23.6668C19.8334 20.4468 22.4467 17.8335 25.6667 17.8335C28.8867 17.8335 31.5001 20.4468 31.5001 23.6668C31.5001 26.8868 28.8867 29.5002 25.6667 29.5002Z" fill="#0043FF"/>
</svg>
