<svg width="42" height="42" viewBox="0 0 42 42" fill="none" xmlns="http://www.w3.org/2000/svg">
<circle opacity="0.5" cx="21.0002" cy="21" r="21" fill="#E6EAF5"/>
<path d="M25.0002 30V28C25.0002 26.9391 24.5788 25.9217 23.8287 25.1716C23.0785 24.4214 22.0611 24 21.0002 24H15.0002C13.9394 24 12.922 24.4214 12.1718 25.1716C11.4217 25.9217 11.0002 26.9391 11.0002 28V30" stroke="#0043FF" stroke-width="2" stroke-linecap="round" stroke-linejoin="round"/>
<path d="M18.0002 20C20.2094 20 22.0002 18.2091 22.0002 16C22.0002 13.7909 20.2094 12 18.0002 12C15.7911 12 14.0002 13.7909 14.0002 16C14.0002 18.2091 15.7911 20 18.0002 20Z" stroke="#0043FF" stroke-width="2" stroke-linecap="round" stroke-linejoin="round"/>
<path d="M31.0002 29.9999V27.9999C30.9996 27.1136 30.7046 26.2527 30.1616 25.5522C29.6186 24.8517 28.8584 24.3515 28.0002 24.1299M25.0002 12.1299C25.8607 12.3502 26.6233 12.8506 27.1679 13.5522C27.7125 14.2538 28.0081 15.1167 28.0081 16.0049C28.0081 16.8931 27.7125 17.756 27.1679 18.4576C26.6233 19.1592 25.8607 19.6596 25.0002 19.8799" stroke="#0043FF" stroke-width="2" stroke-linecap="round" stroke-linejoin="round"/>
</svg>
