<svg width="42" height="42" viewBox="0 0 42 42" fill="none" xmlns="http://www.w3.org/2000/svg">
<circle opacity="0.5" cx="21.0002" cy="21" r="21" fill="#E6EAF5"/>
<g clip-path="url(#clip0_210_44)">
<path fill-rule="evenodd" clip-rule="evenodd" d="M18.7865 11.2486C20.1643 10.9358 21.5927 10.9186 22.9777 11.198C24.3627 11.4774 25.6727 12.0471 26.8215 12.8695C27.9703 13.692 28.9318 14.7486 29.6426 15.9696C30.3533 17.1907 30.7973 18.5485 30.9452 19.9536C30.9713 20.2009 30.898 20.4484 30.7415 20.6417C30.585 20.835 30.3582 20.9582 30.1109 20.9842C29.8635 21.0102 29.616 20.937 29.4227 20.7805C29.2295 20.624 29.1063 20.3972 29.0802 20.1498C28.9195 18.6231 28.3296 17.1732 27.3788 15.9679C26.428 14.7627 25.1551 13.8515 23.7077 13.3398C22.2603 12.8282 20.6976 12.7371 19.2006 13.0771C17.7035 13.417 16.3335 14.1741 15.249 15.2607C14.1645 16.3473 13.4101 17.7189 13.0731 19.2166C12.7361 20.7143 12.8302 22.2768 13.3447 23.7232C13.8592 25.1696 14.7729 26.4406 15.98 27.3891C17.1871 28.3376 18.6382 28.9246 20.1652 29.0823C20.2886 29.0938 20.4085 29.1297 20.5179 29.1878C20.6273 29.2459 20.7241 29.3251 20.8027 29.4209C20.8814 29.5166 20.9402 29.627 20.9759 29.7456C21.0116 29.8643 21.0235 29.9888 21.0108 30.112C20.998 30.2353 20.961 30.3548 20.9018 30.4636C20.8426 30.5725 20.7625 30.6685 20.666 30.7462C20.5694 30.8239 20.4585 30.8816 20.3395 30.9161C20.2205 30.9507 20.0958 30.9613 19.9727 30.9473C17.6139 30.7046 15.418 29.6316 13.7771 27.9197C12.1362 26.2078 11.157 23.9686 11.0143 21.6016C10.8717 19.2345 11.5748 16.8939 12.9982 14.9973C14.4216 13.1007 16.4726 11.7716 18.7852 11.2473L18.7865 11.2486ZM21.0002 14.7498C21.2489 14.7498 21.4873 14.8486 21.6631 15.0244C21.839 15.2002 21.9377 15.4387 21.9377 15.6873V22.2498H16.9377C16.6891 22.2498 16.4506 22.1511 16.2748 21.9753C16.099 21.7994 16.0002 21.561 16.0002 21.3123C16.0002 21.0637 16.099 20.8252 16.2748 20.6494C16.4506 20.4736 16.6891 20.3748 16.9377 20.3748H20.0627V15.6873C20.0627 15.4387 20.1615 15.2002 20.3373 15.0244C20.5131 14.8486 20.7516 14.7498 21.0002 14.7498ZM23.7752 23.7748C23.951 23.5993 24.1893 23.5007 24.4377 23.5007C24.6862 23.5007 24.9245 23.5993 25.1002 23.7748L27.2502 25.9248L29.4002 23.7748C29.4861 23.6827 29.5896 23.6089 29.7046 23.5576C29.8196 23.5064 29.9437 23.4788 30.0696 23.4766C30.1955 23.4744 30.3205 23.4975 30.4372 23.5447C30.554 23.5918 30.66 23.662 30.749 23.751C30.8381 23.8401 30.9082 23.9461 30.9554 24.0628C31.0025 24.1796 31.0257 24.3046 31.0235 24.4305C31.0213 24.5564 30.9937 24.6805 30.9425 24.7955C30.8912 24.9105 30.8173 25.014 30.7252 25.0998L28.5752 27.2498L30.7252 29.3998C30.8173 29.4857 30.8912 29.5892 30.9425 29.7042C30.9937 29.8192 31.0213 29.9433 31.0235 30.0692C31.0257 30.1951 31.0025 30.3201 30.9554 30.4368C30.9082 30.5536 30.8381 30.6596 30.749 30.7486C30.66 30.8377 30.554 30.9078 30.4372 30.955C30.3205 31.0021 30.1955 31.0253 30.0696 31.0231C29.9437 31.0209 29.8196 30.9933 29.7046 30.9421C29.5896 30.8908 29.4861 30.8169 29.4002 30.7248L27.2502 28.5748L25.1002 30.7248C25.0144 30.8169 24.9109 30.8908 24.7959 30.9421C24.6809 30.9933 24.5568 31.0209 24.4309 31.0231C24.305 31.0253 24.18 31.0021 24.0632 30.955C23.9465 30.9078 23.8405 30.8377 23.7514 30.7486C23.6624 30.6596 23.5922 30.5536 23.5451 30.4368C23.4979 30.3201 23.4748 30.1951 23.477 30.0692C23.4792 29.9433 23.5068 29.8192 23.558 29.7042C23.6093 29.5892 23.6831 29.4857 23.7752 29.3998L25.9252 27.2498L23.7752 25.0998C23.5997 24.9241 23.5011 24.6858 23.5011 24.4373C23.5011 24.1889 23.5997 23.9506 23.7752 23.7748Z" fill="#0043FF"/>
</g>
<defs>
<clipPath id="clip0_210_44">
<rect width="20" height="20" fill="white" transform="translate(11.0002 11)"/>
</clipPath>
</defs>
</svg>
