<svg width="42" height="42" viewBox="0 0 42 42" fill="none" xmlns="http://www.w3.org/2000/svg">
<circle opacity="0.5" cx="21.0002" cy="21" r="21" fill="#E6EAF5"/>
<path d="M22.1002 31C20.7002 31 19.3879 30.7333 18.1632 30.2C16.9386 29.6667 15.8719 28.9457 14.9632 28.037C14.0546 27.129 13.3336 26.0623 12.8002 24.837C12.2669 23.6117 12.0002 22.2993 12.0002 20.9C12.0002 18.4667 12.7752 16.3207 14.3252 14.462C15.8752 12.6033 17.8502 11.4493 20.2502 11C19.9502 12.65 20.0419 14.2627 20.5252 15.838C21.0086 17.4133 21.8419 18.7923 23.0252 19.975C24.2086 21.1583 25.5879 21.9917 27.1632 22.475C28.7386 22.9583 30.3509 23.05 32.0002 22.75C31.5669 25.15 30.4169 27.125 28.5502 28.675C26.6836 30.225 24.5336 31 22.1002 31ZM22.1002 29C23.5669 29 24.9252 28.6333 26.1752 27.9C27.4252 27.1667 28.4086 26.1583 29.1252 24.875C27.6919 24.7417 26.3336 24.379 25.0502 23.787C23.7669 23.195 22.6169 22.391 21.6002 21.375C20.5836 20.3583 19.7752 19.2083 19.1752 17.925C18.5752 16.6417 18.2169 15.2833 18.1002 13.85C16.8169 14.5667 15.8129 15.5543 15.0882 16.813C14.3636 18.0717 14.0009 19.434 14.0002 20.9C14.0002 23.15 14.7879 25.0627 16.3632 26.638C17.9386 28.2133 19.8509 29.0007 22.1002 29Z" fill="#0043FF"/>
</svg>
