<svg width="42" height="42" viewBox="0 0 42 42" fill="none" xmlns="http://www.w3.org/2000/svg">
<circle opacity="0.5" cx="21.0002" cy="21" r="21" fill="#E6EAF5"/>
<path d="M20.5002 31.9165C19.2155 31.9165 18.0044 31.6689 16.8669 31.1738C15.7294 30.6787 14.7357 30.0061 13.8857 29.1561C13.035 28.3054 12.3621 27.3113 11.8669 26.1738C11.3718 25.0363 11.1246 23.8255 11.1252 22.5415H13.2086C13.2086 24.5554 13.9204 26.2741 15.344 27.6978C16.7676 29.1214 18.4864 29.8332 20.5002 29.8332C22.5141 29.8332 24.2329 29.1214 25.6565 27.6978C27.0801 26.2741 27.7919 24.5554 27.7919 22.5415H29.8752C29.8752 23.8262 29.6277 25.0373 29.1325 26.1748C28.6374 27.3123 27.9648 28.3061 27.1148 29.1561C26.2641 30.0068 25.27 30.6797 24.1325 31.1748C22.995 31.67 21.7843 31.9172 20.5002 31.9165ZM11.1252 22.5415C11.1252 21.2568 11.3728 20.0457 11.868 18.9082C12.3631 17.7707 13.0357 16.7769 13.8857 15.9269C14.7364 15.0762 15.7305 14.4033 16.868 13.9082C18.0055 13.413 19.2162 13.1658 20.5002 13.1665C21.5766 13.1665 22.6096 13.3401 23.5992 13.6873C24.5888 14.0346 25.5176 14.538 26.3857 15.1978L27.844 13.7394L29.3023 15.1978L27.844 16.6561C28.5037 17.5241 29.0072 18.453 29.3544 19.4425C29.7016 20.4321 29.8752 21.4651 29.8752 22.5415H27.7919C27.7919 20.5276 27.0801 18.8089 25.6565 17.3853C24.2329 15.9616 22.5141 15.2498 20.5002 15.2498C18.4864 15.2498 16.7676 15.9616 15.344 17.3853C13.9204 18.8089 13.2086 20.5276 13.2086 22.5415H11.1252ZM17.3752 12.1248V10.0415H23.6252V12.1248H17.3752ZM20.5002 15.2498C18.66 15.2498 17.0627 15.8488 15.7086 17.0467C14.3544 18.2446 13.5471 19.729 13.2867 21.4998H16.9846L18.3388 23.9998L22.5836 16.5519L25.2919 21.4998H27.7138C27.4534 19.729 26.6461 18.2446 25.2919 17.0467C23.9377 15.8488 22.3405 15.2498 20.5002 15.2498ZM20.5002 29.8332C22.3405 29.8332 23.9377 29.2342 25.2919 28.0363C26.6461 26.8384 27.4534 25.354 27.7138 23.5832H24.0159L22.6617 21.0832L18.4169 28.5311L15.7086 23.5832H13.2867C13.5471 25.354 14.3544 26.8384 15.7086 28.0363C17.0627 29.2342 18.66 29.8332 20.5002 29.8332ZM20.5002 29.8332C18.4864 29.8332 16.7676 29.1214 15.344 27.6978C13.9204 26.2741 13.2086 24.5554 13.2086 22.5415C13.2086 20.5276 13.9204 18.8089 15.344 17.3853C16.7676 15.9616 18.4864 15.2498 20.5002 15.2498C22.5141 15.2498 24.2329 15.9616 25.6565 17.3853C27.0801 18.8089 27.7919 20.5276 27.7919 22.5415C27.7919 24.5554 27.0801 26.2741 25.6565 27.6978C24.2329 29.1214 22.5141 29.8332 20.5002 29.8332Z" fill="#0043FF"/>
</svg>
