<svg width="42" height="42" viewBox="0 0 42 42" fill="none" xmlns="http://www.w3.org/2000/svg">
<circle opacity="0.5" cx="21" cy="21" r="21" fill="#E6EAF5"/>
<g clip-path="url(#clip0_210_46)">
<path d="M27.6699 19.8965C28.1777 20.1374 28.6367 20.4401 29.0469 20.8047C29.457 21.1693 29.8086 21.5827 30.1016 22.0449C30.3945 22.5072 30.6159 23.002 30.7656 23.5293C30.9154 24.0566 30.9935 24.6035 31 25.1699C31 25.9707 30.847 26.7259 30.541 27.4355C30.235 28.1452 29.8184 28.7637 29.291 29.291C28.7637 29.8184 28.1452 30.235 27.4355 30.541C26.7259 30.847 25.9707 31 25.1699 31C24.6035 31 24.0566 30.9219 23.5293 30.7656C23.002 30.6094 22.5104 30.388 22.0547 30.1016C21.599 29.8151 21.1855 29.4668 20.8145 29.0566C20.4434 28.6465 20.1374 28.1842 19.8965 27.6699H11V12.6699H14.3301V11H16V12.6699H22.6699V11H24.3301V12.6699H27.6699V19.8965ZM12.6699 16H26V14.3301H12.6699V16ZM19.3887 26C19.3496 25.7266 19.3301 25.4499 19.3301 25.1699C19.3301 24.3626 19.4831 23.6042 19.7891 22.8945C20.0951 22.1849 20.5117 21.5664 21.0391 21.0391C21.5664 20.5117 22.1849 20.0951 22.8945 19.7891C23.6042 19.4831 24.3626 19.3301 25.1699 19.3301C25.4499 19.3301 25.7266 19.3496 26 19.3887V17.6699H12.6699V26H19.3887ZM25.1699 29.3301C25.7428 29.3301 26.2799 29.2227 26.7812 29.0078C27.2826 28.793 27.7253 28.4935 28.1094 28.1094C28.4935 27.7253 28.7897 27.2858 28.998 26.791C29.2064 26.2962 29.3171 25.7559 29.3301 25.1699C29.3301 24.597 29.2227 24.0566 29.0078 23.5488C28.793 23.041 28.4967 22.5983 28.1191 22.2207C27.7415 21.8431 27.2988 21.5469 26.791 21.332C26.2832 21.1172 25.7428 21.0065 25.1699 21C24.5905 21 24.0501 21.1074 23.5488 21.3223C23.0475 21.5371 22.6048 21.8366 22.2207 22.2207C21.8366 22.6048 21.5404 23.0475 21.332 23.5488C21.1237 24.0501 21.013 24.5905 21 25.1699C21 25.7493 21.1074 26.2897 21.3223 26.791C21.5371 27.2923 21.8366 27.7318 22.2207 28.1094C22.6048 28.487 23.0475 28.7832 23.5488 28.998C24.0501 29.2129 24.5905 29.3236 25.1699 29.3301ZM26 24.3301H27.6699V26H24.3301V22.6699H26V24.3301Z" fill="#0043FF"/>
</g>
<defs>
<clipPath id="clip0_210_46">
<rect width="20" height="20" fill="white" transform="translate(11 11)"/>
</clipPath>
</defs>
</svg>
